<?xml version="1.0" standalone="no"?><!DOCTYPE svg PUBLIC "-//W3C//DTD SVG 1.1//EN" "http://www.w3.org/Graphics/SVG/1.1/DTD/svg11.dtd"><svg t="1741057260060" class="icon" viewBox="0 0 1024 1024" version="1.1" xmlns="http://www.w3.org/2000/svg" p-id="1538" width="48" height="48" xmlns:xlink="http://www.w3.org/1999/xlink"><path d="M512 106.666667a66.666667 66.666667 0 0 0-37.333333 121.92V352a5.333333 5.333333 0 0 1-5.333334 5.333333H224a5.333333 5.333333 0 0 0-5.333333 5.333334v549.333333a5.333333 5.333333 0 0 0 5.333333 5.333333h576a5.333333 5.333333 0 0 0 5.333333-5.333333V362.666667a5.333333 5.333333 0 0 0-5.333333-5.333334h-245.333333a5.333333 5.333333 0 0 1-5.333334-5.333333V228.586667A66.666667 66.666667 0 0 0 514.666667 106.666667zM298.666667 842.666667a5.333333 5.333333 0 0 1-5.333334-5.333334V437.333333a5.333333 5.333333 0 0 1 5.333334-5.333333h426.666666a5.333333 5.333333 0 0 1 5.333334 5.333333v400a5.333333 5.333333 0 0 1-5.333334 5.333334zM912 485.973333h-64a5.333333 5.333333 0 0 0-5.333333 5.333334v292.053333a5.333333 5.333333 0 0 0 5.333333 5.333333h64a5.333333 5.333333 0 0 0 5.333333-5.333333V491.306667a5.333333 5.333333 0 0 0-5.333333-5.333334zM176 485.973333H112a5.333333 5.333333 0 0 0-5.333333 5.333334v292.053333a5.333333 5.333333 0 0 0 5.333333 5.333333h64a5.333333 5.333333 0 0 0 5.333333-5.333333V491.306667a5.333333 5.333333 0 0 0-5.333333-5.333334z" p-id="1539" fill="#707070"></path><path d="M618.186667 693.333333H405.813333a5.333333 5.333333 0 0 0-5.333333 5.333334v64a5.333333 5.333333 0 0 0 5.333333 5.333333h212.373334a5.333333 5.333333 0 0 0 5.333333-5.333333v-64a5.333333 5.333333 0 0 0-5.333333-5.333334zM370.346667 540.533333a48 48 0 1 0 48 48 48 48 0 0 0-48-48zM653.653333 540.533333a48 48 0 1 0 48 48 48 48 0 0 0-48-48z" p-id="1540" fill="#707070"></path></svg>